<svg width="33" height="35" viewBox="0 0 33 35" fill="none" xmlns="http://www.w3.org/2000/svg">
<path d="M29.8984 17.9453C31.4297 17.9453 32.1953 18.4766 32.1953 19.5391C32.1953 20.5547 31.4766 21.8672 30.0391 23.4766L28.8906 24.6719C27.5 26.0938 25.875 27.4922 24.0156 28.8672C22.1719 30.2422 20.5469 31.3281 19.1406 32.125C15.875 33.9375 12.9141 34.8438 10.2578 34.8438C7.75781 34.8438 5.71875 34.0938 4.14062 32.5938C2.78125 31.2969 2.10156 29.9297 2.10156 28.4922C2.10156 27.0547 2.24219 25.625 2.52344 24.2031C2.80469 22.7812 3.17188 21.3906 3.625 20.0312C4.53125 17.2656 5.52344 14.9141 6.60156 12.9766C6.88281 12.4453 7.02344 12.1016 7.02344 11.9453H4C2.85938 11.9453 1.97656 11.6797 1.35156 11.1484C0.726562 10.6172 0.414062 10.0156 0.414062 9.34375C0.414062 8.67188 0.539062 8.17969 0.789062 7.86719C1.03906 7.55469 1.35156 7.32812 1.72656 7.1875C2.25781 6.96875 3.03906 6.85938 4.07031 6.85938L9.8125 6.88281C9.9375 6.83594 10.1875 6.5 10.5625 5.875L11.9922 3.41406C12.6016 2.32031 13.2109 1.51562 13.8203 1C14.4453 0.484375 15.1719 0.226562 16 0.226562C16.8438 0.226562 17.5469 0.304687 18.1094 0.460938C18.6875 0.617188 19.1719 0.8125 19.5625 1.04688C20.3281 1.54687 20.7109 2.09375 20.7109 2.6875C20.7109 2.9375 20.625 3.27344 20.4531 3.69531L19.1406 6.88281L30.2734 6.85938C31.2422 6.85938 31.7266 7.35938 31.7266 8.35938C31.7266 10.7344 29.6094 11.9219 25.375 11.9219L16.7969 11.9453C16.6094 12.0391 16.2891 12.4922 15.8359 13.3047L14.7812 15.25C14.5156 15.7344 14.3281 16.1016 14.2188 16.3516L13.7031 17.5C12.6562 19.8594 12.1328 21.5625 12.1328 22.6094C12.1328 23.6562 12.4062 24.5312 12.9531 25.2344C13.5156 25.9375 14.2578 26.2891 15.1797 26.2891C16.1016 26.2891 17 26.1094 17.875 25.75C18.7656 25.3906 19.6328 24.9531 20.4766 24.4375C22.0078 23.4844 23.2109 22.6016 24.0859 21.7891C24.9609 20.9766 25.6875 20.3594 26.2656 19.9375C26.2656 19.9375 26.8125 19.5547 27.9062 18.7891C28.75 18.2266 29.4141 17.9453 29.8984 17.9453Z" fill="#FAF4E1"/>
</svg>
