<svg width="120" height="120" viewBox="0 0 120 120" fill="none" xmlns="http://www.w3.org/2000/svg">
<rect width="120" height="120" rx="10" fill="#252E18"/>
<path d="M73.8984 58.9453C75.4297 58.9453 76.1953 59.4766 76.1953 60.5391C76.1953 61.5547 75.4766 62.8672 74.0391 64.4766L72.8906 65.6719C71.5 67.0938 69.875 68.4922 68.0156 69.8672C66.1719 71.2422 64.5469 72.3281 63.1406 73.125C59.875 74.9375 56.9141 75.8438 54.2578 75.8438C51.7578 75.8438 49.7188 75.0938 48.1406 73.5938C46.7812 72.2969 46.1016 70.9297 46.1016 69.4922C46.1016 68.0547 46.2422 66.625 46.5234 65.2031C46.8047 63.7812 47.1719 62.3906 47.625 61.0312C48.5312 58.2656 49.5234 55.9141 50.6016 53.9766C50.8828 53.4453 51.0234 53.1016 51.0234 52.9453H48C46.8594 52.9453 45.9766 52.6797 45.3516 52.1484C44.7266 51.6172 44.4141 51.0156 44.4141 50.3438C44.4141 49.6719 44.5391 49.1797 44.7891 48.8672C45.0391 48.5547 45.3516 48.3281 45.7266 48.1875C46.2578 47.9688 47.0391 47.8594 48.0703 47.8594L53.8125 47.8828C53.9375 47.8359 54.1875 47.5 54.5625 46.875L55.9922 44.4141C56.6016 43.3203 57.2109 42.5156 57.8203 42C58.4453 41.4844 59.1719 41.2266 60 41.2266C60.8438 41.2266 61.5469 41.3047 62.1094 41.4609C62.6875 41.6172 63.1719 41.8125 63.5625 42.0469C64.3281 42.5469 64.7109 43.0938 64.7109 43.6875C64.7109 43.9375 64.625 44.2734 64.4531 44.6953L63.1406 47.8828L74.2734 47.8594C75.2422 47.8594 75.7266 48.3594 75.7266 49.3594C75.7266 51.7344 73.6094 52.9219 69.375 52.9219L60.7969 52.9453C60.6094 53.0391 60.2891 53.4922 59.8359 54.3047L58.7812 56.25C58.5156 56.7344 58.3281 57.1016 58.2188 57.3516L57.7031 58.5C56.6562 60.8594 56.1328 62.5625 56.1328 63.6094C56.1328 64.6562 56.4062 65.5312 56.9531 66.2344C57.5156 66.9375 58.2578 67.2891 59.1797 67.2891C60.1016 67.2891 61 67.1094 61.875 66.75C62.7656 66.3906 63.6328 65.9531 64.4766 65.4375C66.0078 64.4844 67.2109 63.6016 68.0859 62.7891C68.9609 61.9766 69.6875 61.3594 70.2656 60.9375C70.2656 60.9375 70.8125 60.5547 71.9062 59.7891C72.75 59.2266 73.4141 58.9453 73.8984 58.9453Z" fill="#FAF4E1"/>
</svg>
