<svg width="193" height="124" viewBox="0 0 193 124" fill="none" xmlns="http://www.w3.org/2000/svg">
<path d="M56.4342 41.265L54.5137 36.6485L56.4342 41.265ZM193.006 44.3286L154.883 0.97L136.395 55.6648L193.006 44.3286ZM5.00402 122.268L9.79572 123.696C10.7751 120.41 12.0432 116.552 13.5757 112.33L8.87583 110.624L4.17596 108.918C2.58256 113.307 1.25208 117.351 0.212322 120.84L5.00402 122.268ZM18.3573 87.9681L22.8684 90.1245C26.3089 82.927 30.2105 75.7486 34.4765 69.2618L30.2989 66.5145L26.1214 63.7671C21.5474 70.7222 17.4294 78.3157 13.8462 85.8117L18.3573 87.9681ZM46.1099 47.812L49.3498 51.6204C52.3762 49.0457 55.3879 47.1157 58.3547 45.8814L56.4342 41.265L54.5137 36.6485C50.3722 38.3714 46.4859 40.9277 42.8701 44.0037L46.1099 47.812ZM56.4342 41.265L58.3547 45.8814C62.0573 44.3411 65.6816 42.8921 69.2528 41.5501L67.4939 36.8697L65.7351 32.1893C62.0324 33.5807 58.298 35.0742 54.5137 36.6485L56.4342 41.265ZM90.1933 29.7773L91.3467 34.6425C98.8248 32.8695 106.265 31.7672 113.9 31.4986L113.725 26.5017L113.549 21.5047C105.168 21.7996 97.0696 23.0084 89.0398 24.9122L90.1933 29.7773ZM137.412 28.2328L136.53 33.1544C140.15 33.803 143.863 34.6456 147.688 35.6998L149.016 30.8795L150.345 26.0592C146.237 24.9271 142.226 24.0157 138.294 23.3112L137.412 28.2328ZM149.016 30.8795L147.688 35.6998C151.846 36.846 155.505 37.8696 158.74 38.7881L160.106 33.9783L161.472 29.1685C158.209 28.2419 154.525 27.2114 150.345 26.0592L149.016 30.8795Z" fill="#FAF4E1"/>
</svg>
