<svg width="145" height="102" viewBox="0 0 145 102" fill="none" xmlns="http://www.w3.org/2000/svg">
<path d="M87.5731 70.5L88.4255 65.5732L87.5731 70.5ZM145 78.5L98.3005 44.552L92.2505 101.969L145 78.5ZM3.96777 4L0.888642 7.93941C3.4511 9.94228 5.84488 11.8689 8.08256 13.7225L11.2722 9.87201L14.4618 6.02151C12.1476 4.10451 9.67996 2.11865 7.0469 0.06059L3.96777 4ZM25.1459 22.2582L21.6554 25.8382C26.9315 30.9824 30.7585 35.3728 33.6266 39.1339L37.6025 36.1021L41.5784 33.0703C38.3801 28.876 34.22 24.1223 28.6365 18.6783L25.1459 22.2582ZM47.1678 52.0357L42.6817 54.2437C44.0724 57.0693 45.5645 60.0284 48.063 62.6171C50.6378 65.2849 53.9565 67.2547 58.5938 68.9589L60.3185 64.2658L62.0433 59.5727C58.308 58.2 56.4609 56.9186 55.2583 55.6726C53.9793 54.3474 53.0823 52.7299 51.6538 49.8277L47.1678 52.0357ZM78.3464 68.8155L77.3916 73.7235C80.2131 74.2724 83.3123 74.8371 86.7207 75.4268L87.5731 70.5L88.4255 65.5732C85.0683 64.9924 82.0395 64.4403 79.3013 63.9076L78.3464 68.8155ZM87.5731 70.5L86.7207 75.4268C91.9896 76.3384 96.7699 77.1371 101.108 77.8376L101.905 72.9016L102.702 67.9655C98.4035 67.2714 93.6603 66.4789 88.4255 65.5732L87.5731 70.5Z" fill="#FAF4E1"/>
</svg>
