<svg width="544" height="89" viewBox="0 0 544 89" fill="none" xmlns="http://www.w3.org/2000/svg">
<path d="M2.37654 87.2217L29.0255 22.9713L35.584 22.7423L66.6499 84.9773L51.3779 85.5106L33.1411 44.1218L17.6485 86.6884L2.37654 87.2217ZM16.3799 74.5378L16.0102 63.9505L51.2387 62.7203L51.6084 73.3076L16.3799 74.5378ZM125.658 82.9167L124.605 55.4679C124.494 52.2824 123.63 49.9361 122.014 48.4291C120.461 46.9199 118.341 46.2122 115.655 46.3059C113.531 46.3801 111.588 47.1359 109.824 48.5733C108.061 50.0107 106.525 51.6904 105.216 53.6122L104.847 43.0249C105.8 41.6783 106.943 40.3876 108.276 39.1529C109.669 37.8535 111.258 36.7974 113.043 35.9846C114.826 35.1093 116.78 34.6346 118.903 34.5604C122.151 34.447 125.081 35.0639 127.692 36.4111C130.303 37.7583 132.378 39.8746 133.917 42.7602C135.517 45.5811 136.392 49.1465 136.542 53.4563L137.557 82.5011L125.658 82.9167ZM94.3642 84.0095L92.7119 36.6945L104.611 36.279L106.263 83.5939L94.3642 84.0095ZM213.761 47.7111C216.821 47.6042 218.389 48.6126 218.463 50.7363C218.534 52.7663 217.189 55.4399 214.428 58.757L212.216 61.2264C209.536 64.1654 206.385 67.074 202.765 69.9521C199.175 72.8292 196.003 75.1131 193.248 76.8041C186.847 80.6548 180.992 82.6729 175.683 82.8583C170.686 83.0328 166.558 81.676 163.299 78.788C160.491 76.2907 159.037 73.6054 158.937 70.7322C158.837 67.8589 159.018 64.9915 159.481 62.1298C159.944 59.2682 160.581 56.463 161.392 53.7143C163.01 48.1231 164.829 43.3536 166.849 39.4057C167.374 38.3243 167.631 37.6274 167.62 37.315L161.577 37.5261C159.297 37.6057 157.514 37.1364 156.227 36.1182C154.941 35.0999 154.274 33.9194 154.228 32.5764C154.181 31.2335 154.396 30.241 154.874 29.5989C155.352 28.9569 155.961 28.4822 156.7 28.1749C157.747 27.7006 159.301 27.4275 161.362 27.3555L172.841 27.0015C173.088 26.8991 173.564 26.2102 174.27 24.9348L176.956 19.9161C178.097 17.6874 179.259 16.0365 180.441 14.9633C181.655 13.8891 183.089 13.3231 184.744 13.2653C186.431 13.2064 187.841 13.3135 188.977 13.5865C190.143 13.8585 191.125 14.215 191.922 14.6562C193.487 15.6022 194.291 16.6686 194.332 17.8553C194.349 18.355 194.201 19.0325 193.887 19.8877L191.486 26.3504L213.737 25.5265C215.673 25.4589 216.676 26.4245 216.746 28.4233C216.911 33.1704 212.763 35.6917 204.299 35.9873L187.155 36.6329C186.787 36.8333 186.178 37.7614 185.329 39.417L183.357 43.3789C182.86 44.3656 182.51 45.1126 182.309 45.62L181.359 47.9514C179.431 52.7404 178.504 56.1811 178.577 58.2736C178.65 60.366 179.257 62.0959 180.4 63.4631C181.573 64.8292 183.081 65.4801 184.924 65.4158C186.766 65.3514 188.549 64.9296 190.273 64.1502C192.028 63.3697 193.731 62.4347 195.382 61.3452C198.376 59.3332 200.719 57.4847 202.411 55.7996C204.103 54.1145 205.513 52.8302 206.639 51.9466C206.639 51.9466 207.705 51.1433 209.838 49.5366C211.485 48.3534 212.793 47.7449 213.761 47.7111ZM255.34 79.7952C251.592 79.926 248.061 79.08 244.745 77.2571C241.492 75.432 238.802 72.7118 236.674 69.0963C234.609 65.4787 233.485 61.0465 233.302 55.7997C233.116 50.4904 233.926 45.9281 235.732 42.1128C237.6 38.2953 240.154 35.3293 243.395 33.2149C246.698 31.0984 250.38 29.9692 254.44 29.8274C257.063 29.7358 259.676 30.2387 262.278 31.336C264.943 32.4312 267.185 33.9476 269.004 35.8853L268.817 30.5448L280.716 30.1293L282.368 77.4442L270.469 77.8597L270.191 69.8958C268.907 72.5048 266.985 74.792 264.427 76.7574C261.867 78.6604 258.838 79.673 255.34 79.7952ZM257.923 67.7915C260.047 67.7173 261.994 67.0864 263.767 65.8989C265.601 64.7091 267.076 63.0629 268.191 60.9602C269.306 58.8575 269.783 56.4019 269.622 53.5933L269.386 46.8474C267.637 45.0949 265.744 43.7226 263.708 42.7305C261.735 41.7363 259.592 41.2795 257.281 41.3602C254.783 41.4475 252.651 42.1786 250.885 43.5536C249.18 44.8639 247.864 46.5671 246.936 48.6632C246.009 50.7594 245.586 52.9942 245.669 55.3678C245.75 57.6789 246.325 59.8164 247.394 61.7802C248.461 63.6817 249.89 65.1952 251.68 66.3209C253.531 67.382 255.612 67.8722 257.923 67.7915ZM316.173 76.2637L314.52 28.9488L326.419 28.5333L328.072 75.8482L316.173 76.2637ZM327.149 49.4268L326.73 37.4341C328.256 34.5666 330.079 32.1578 332.2 30.2076C334.383 28.2552 336.88 27.2299 339.691 27.1318C341.44 27.0707 342.98 27.2983 344.312 27.8147L344.779 41.2128C343.823 40.6833 342.809 40.3122 341.739 40.0995C340.728 39.822 339.63 39.7041 338.443 39.7455C335.757 39.8393 333.509 40.8246 331.698 42.7014C329.948 44.5136 328.432 46.7554 327.149 49.4268ZM392.282 75.0131C388.534 75.1439 385.002 74.2979 381.687 72.475C378.434 70.6499 375.743 67.9297 373.616 64.3142C371.551 60.6966 370.427 56.2644 370.243 51.0176C370.058 45.7083 370.868 41.146 372.673 37.3307C374.541 33.5132 377.096 30.5472 380.336 28.4328C383.639 26.3162 387.321 25.1871 391.381 25.0453C394.004 24.9537 396.617 25.4566 399.22 26.5539C401.885 27.6491 404.126 29.1655 405.945 31.1032L405.759 25.7627L417.658 25.3472L419.31 72.6621L407.411 73.0776L407.133 65.1137C405.848 67.7227 403.927 70.0099 401.369 71.9753C398.809 73.8783 395.78 74.8909 392.282 75.0131ZM394.864 63.0094C396.988 62.9352 398.936 62.3043 400.708 61.1168C402.543 59.927 404.017 58.2808 405.132 56.1781C406.247 54.0754 406.724 51.6198 406.564 48.8112L406.328 42.0653C404.578 40.3128 402.685 38.9405 400.65 37.9484C398.676 36.9542 396.534 36.4974 394.223 36.5781C391.724 36.6654 389.592 37.3965 387.827 38.7715C386.121 40.0818 384.805 41.785 383.878 43.8811C382.95 45.9773 382.528 48.2121 382.611 50.5857C382.692 52.8968 383.266 55.0343 384.336 56.9981C385.403 58.8996 386.831 60.4131 388.622 61.5388C390.472 62.5999 392.553 63.0901 394.864 63.0094ZM453.114 71.4816L450.759 4.02274L462.658 3.60722L465.013 71.0661L453.114 71.4816ZM516.668 70.6694C512.921 70.8002 509.389 69.9542 506.073 68.1313C502.82 66.3063 500.13 63.586 498.002 59.9705C495.937 56.3529 494.813 51.9207 494.63 46.6739C494.445 41.3646 495.255 36.8023 497.06 32.987C498.928 29.1695 501.482 26.2035 504.723 24.0891C508.026 21.9726 511.708 20.8434 515.768 20.7016C518.391 20.61 521.004 21.1129 523.606 22.2102C526.271 23.3054 528.513 24.8218 530.332 26.7595L530.145 21.419L542.044 21.0035L543.697 68.3184L531.798 68.7339L531.519 60.77C530.235 63.379 528.313 65.6662 525.755 67.6316C523.195 69.5346 520.166 70.5472 516.668 70.6694ZM519.251 58.6657C521.375 58.5915 523.323 57.9607 525.095 56.7731C526.929 55.5833 528.404 53.9371 529.519 51.8344C530.634 49.7317 531.111 47.2761 530.95 44.4675L530.715 37.7216C528.965 35.9691 527.072 34.5968 525.036 33.6048C523.063 32.6105 520.921 32.1538 518.609 32.2345C516.111 32.3217 513.979 33.0528 512.213 34.4278C510.508 35.7381 509.192 37.4413 508.264 39.5375C507.337 41.6336 506.915 43.8684 506.998 46.242C507.078 48.5531 507.653 50.6906 508.722 52.6545C509.789 54.5559 511.218 56.0694 513.008 57.1951C514.859 58.2562 516.94 58.7464 519.251 58.6657Z" fill="#FAF4E1"/>
</svg>
