<svg width="148" height="20" viewBox="0 0 148 20" fill="none" xmlns="http://www.w3.org/2000/svg">
<path d="M0.330078 19L8.15039 1.86133H9.92773L17.748 19H13.6094L9.06445 7.625L4.46875 19H0.330078ZM4.24023 15.6992V12.8301H13.7871V15.6992H4.24023ZM33.7391 19L33.7137 11.5605C33.7137 10.6973 33.5021 10.054 33.0789 9.63086C32.6727 9.20768 32.1056 8.99609 31.3777 8.99609C30.8022 8.99609 30.269 9.18229 29.7781 9.55469C29.2872 9.92708 28.8556 10.3672 28.4832 10.875V8.00586C28.754 7.65039 29.0757 7.31185 29.448 6.99023C29.8374 6.65169 30.2775 6.38086 30.7684 6.17773C31.2592 5.95768 31.7924 5.84766 32.368 5.84766C33.2482 5.84766 34.0353 6.04232 34.7293 6.43164C35.4233 6.82096 35.965 7.41341 36.3543 8.20898C36.7605 8.98763 36.9637 9.96094 36.9637 11.1289V19H33.7391ZM25.2586 19V6.17773H28.4832V19H25.2586ZM57.9186 10.3037C58.748 10.3037 59.1627 10.5915 59.1627 11.167C59.1627 11.7171 58.7734 12.4281 57.9947 13.2998L57.3727 13.9473C56.6194 14.7174 55.7392 15.4749 54.732 16.2197C53.7333 16.9645 52.8531 17.5527 52.0914 17.9844C50.3225 18.9661 48.7187 19.457 47.2799 19.457C45.9257 19.457 44.8212 19.0508 43.9664 18.2383C43.2301 17.5358 42.8619 16.7952 42.8619 16.0166C42.8619 15.238 42.9381 14.4635 43.0904 13.6934C43.2428 12.9232 43.4417 12.1699 43.6871 11.4336C44.178 9.93555 44.7154 8.66178 45.2994 7.6123C45.4518 7.32454 45.5279 7.13835 45.5279 7.05371H43.8902C43.2724 7.05371 42.7942 6.90983 42.4557 6.62207C42.1171 6.33431 41.9479 6.00846 41.9479 5.64453C41.9479 5.2806 42.0156 5.014 42.151 4.84473C42.2864 4.67546 42.4557 4.55273 42.6588 4.47656C42.9466 4.35807 43.3697 4.29883 43.9283 4.29883L47.0387 4.31152C47.1064 4.28613 47.2418 4.10417 47.4449 3.76562L48.2193 2.43262C48.5494 1.84017 48.8795 1.4043 49.2096 1.125C49.5481 0.845703 49.9417 0.706055 50.3902 0.706055C50.8473 0.706055 51.2281 0.748372 51.5328 0.833008C51.846 0.917643 52.1083 1.02344 52.3199 1.15039C52.7346 1.42122 52.942 1.71745 52.942 2.03906C52.942 2.17448 52.8954 2.35645 52.8023 2.58496L52.0914 4.31152L58.1217 4.29883C58.6464 4.29883 58.9088 4.56966 58.9088 5.11133C58.9088 6.39779 57.762 7.04102 55.4684 7.04102L50.8219 7.05371C50.7203 7.10449 50.5468 7.34993 50.3014 7.79004L49.7301 8.84375C49.5862 9.10612 49.4846 9.30501 49.4254 9.44043L49.1461 10.0625C48.579 11.3405 48.2955 12.263 48.2955 12.8301C48.2955 13.3971 48.4436 13.8711 48.7398 14.252C49.0445 14.6328 49.4466 14.8232 49.9459 14.8232C50.4452 14.8232 50.9319 14.7259 51.4059 14.5312C51.8883 14.3366 52.358 14.0996 52.815 13.8203C53.6445 13.304 54.2962 12.8258 54.7701 12.3857C55.2441 11.9456 55.6376 11.6113 55.9508 11.3828C55.9508 11.3828 56.247 11.1755 56.8395 10.7607C57.2965 10.4561 57.6562 10.3037 57.9186 10.3037ZM68.8695 19.3809C67.8539 19.3809 66.906 19.1185 66.0258 18.5938C65.1625 18.069 64.46 17.3073 63.9184 16.3086C63.3936 15.3099 63.1312 14.0996 63.1312 12.6777C63.1312 11.2389 63.3936 10.0117 63.9184 8.99609C64.46 7.98047 65.1794 7.20182 66.0766 6.66016C66.9906 6.11849 67.9978 5.84766 69.098 5.84766C69.809 5.84766 70.5115 6.00846 71.2055 6.33008C71.9164 6.65169 72.5089 7.08333 72.9828 7.625V6.17773H76.2074V19H72.9828V16.8418C72.6104 17.5358 72.0687 18.1367 71.3578 18.6445C70.6469 19.1354 69.8174 19.3809 68.8695 19.3809ZM69.682 16.1562C70.2576 16.1562 70.7908 16.0039 71.2816 15.6992C71.7895 15.3945 72.2042 14.9629 72.5258 14.4043C72.8474 13.8457 72.9997 13.1855 72.9828 12.4238V10.5957C72.5258 10.1048 72.0264 9.71549 71.4848 9.42773C70.96 9.13997 70.3845 8.99609 69.7582 8.99609C69.0811 8.99609 68.4971 9.17383 68.0062 9.5293C67.5323 9.86784 67.1599 10.3164 66.8891 10.875C66.6182 11.4336 66.4828 12.0345 66.4828 12.6777C66.4828 13.304 66.6182 13.888 66.8891 14.4297C67.1599 14.9544 67.5323 15.3776 68.0062 15.6992C68.4971 16.0039 69.0557 16.1562 69.682 16.1562ZM85.3684 19V6.17773H88.593V19H85.3684ZM88.593 11.8398V8.58984C89.0331 7.82812 89.5494 7.19336 90.1418 6.68555C90.7512 6.17773 91.4367 5.92383 92.1984 5.92383C92.6724 5.92383 93.0871 6 93.4426 6.15234V9.7832C93.1887 9.63086 92.9178 9.52083 92.6301 9.45312C92.3592 9.36849 92.063 9.32617 91.7414 9.32617C91.0135 9.32617 90.3957 9.57161 89.8879 10.0625C89.397 10.5365 88.9654 11.1289 88.593 11.8398ZM105.98 19.3809C104.965 19.3809 104.017 19.1185 103.137 18.5938C102.273 18.069 101.571 17.3073 101.029 16.3086C100.505 15.3099 100.242 14.0996 100.242 12.6777C100.242 11.2389 100.505 10.0117 101.029 8.99609C101.571 7.98047 102.29 7.20182 103.188 6.66016C104.102 6.11849 105.109 5.84766 106.209 5.84766C106.92 5.84766 107.622 6.00846 108.316 6.33008C109.027 6.65169 109.62 7.08333 110.094 7.625V6.17773H113.318V19H110.094V16.8418C109.721 17.5358 109.18 18.1367 108.469 18.6445C107.758 19.1354 106.928 19.3809 105.98 19.3809ZM106.793 16.1562C107.368 16.1562 107.902 16.0039 108.393 15.6992C108.9 15.3945 109.315 14.9629 109.637 14.4043C109.958 13.8457 110.111 13.1855 110.094 12.4238V10.5957C109.637 10.1048 109.137 9.71549 108.596 9.42773C108.071 9.13997 107.495 8.99609 106.869 8.99609C106.192 8.99609 105.608 9.17383 105.117 9.5293C104.643 9.86784 104.271 10.3164 104 10.875C103.729 11.4336 103.594 12.0345 103.594 12.6777C103.594 13.304 103.729 13.888 104 14.4297C104.271 14.9544 104.643 15.3776 105.117 15.6992C105.608 16.0039 106.167 16.1562 106.793 16.1562ZM122.479 19V0.71875H125.704V19H122.479ZM139.689 19.3809C138.673 19.3809 137.726 19.1185 136.845 18.5938C135.982 18.069 135.28 17.3073 134.738 16.3086C134.213 15.3099 133.951 14.0996 133.951 12.6777C133.951 11.2389 134.213 10.0117 134.738 8.99609C135.28 7.98047 135.999 7.20182 136.896 6.66016C137.81 6.11849 138.817 5.84766 139.918 5.84766C140.629 5.84766 141.331 6.00846 142.025 6.33008C142.736 6.65169 143.328 7.08333 143.802 7.625V6.17773H147.027V19H143.802V16.8418C143.43 17.5358 142.888 18.1367 142.177 18.6445C141.466 19.1354 140.637 19.3809 139.689 19.3809ZM140.502 16.1562C141.077 16.1562 141.61 16.0039 142.101 15.6992C142.609 15.3945 143.024 14.9629 143.345 14.4043C143.667 13.8457 143.819 13.1855 143.802 12.4238V10.5957C143.345 10.1048 142.846 9.71549 142.304 9.42773C141.78 9.13997 141.204 8.99609 140.578 8.99609C139.901 8.99609 139.317 9.17383 138.826 9.5293C138.352 9.86784 137.979 10.3164 137.709 10.875C137.438 11.4336 137.302 12.0345 137.302 12.6777C137.302 13.304 137.438 13.888 137.709 14.4297C137.979 14.9544 138.352 15.3776 138.826 15.6992C139.317 16.0039 139.875 16.1562 140.502 16.1562Z" fill="#252E18"/>
</svg>
